<mxfile host="Electron" modified="2023-11-27T10:44:28.828Z" agent="Mozilla/5.0 (Windows NT 10.0; Win64; x64) AppleWebKit/537.36 (KHTML, like Gecko) draw.io/22.0.3 Chrome/114.0.5735.289 Electron/25.8.4 Safari/537.36" etag="7bFu4B15kFBSGL-ikQQ7" version="22.0.3" type="device">
  <diagram name="Pagina-1" id="ZR_6BwqGiIvRILRJ7GTZ">
    <mxGraphModel dx="1382" dy="690" grid="1" gridSize="10" guides="1" tooltips="1" connect="1" arrows="1" fold="1" page="1" pageScale="1" pageWidth="827" pageHeight="1169" math="0" shadow="0">
      <root>
        <mxCell id="0" />
        <mxCell id="1" parent="0" />
        <mxCell id="1MviEou3UJjA7Qx_oaFe-1" value="CONTO" style="rounded=0;whiteSpace=wrap;html=1;fillColor=#1ba1e2;strokeColor=#006EAF;fontColor=#ffffff;" parent="1" vertex="1">
          <mxGeometry x="580" y="370" width="120" height="60" as="geometry" />
        </mxCell>
        <mxCell id="1MviEou3UJjA7Qx_oaFe-2" value="proprietà" style="rhombus;whiteSpace=wrap;html=1;fillColor=#ffff88;strokeColor=#36393d;" parent="1" vertex="1">
          <mxGeometry x="320" y="375" width="150" height="50" as="geometry" />
        </mxCell>
        <mxCell id="1MviEou3UJjA7Qx_oaFe-3" value="CLIENTE" style="rounded=0;whiteSpace=wrap;html=1;fillColor=#1ba1e2;strokeColor=#006EAF;fontColor=#ffffff;" parent="1" vertex="1">
          <mxGeometry x="90" y="370" width="120" height="60" as="geometry" />
        </mxCell>
        <mxCell id="1MviEou3UJjA7Qx_oaFe-6" value="- &lt;font color=&quot;#0000cc&quot;&gt;codice_fiscale&lt;/font&gt;&lt;br&gt;&lt;div style=&quot;text-align: left;&quot;&gt;&lt;span style=&quot;background-color: initial;&quot;&gt;- nominativo&amp;nbsp;&lt;/span&gt;&lt;/div&gt;&lt;div style=&quot;text-align: left;&quot;&gt;- indirizzo&lt;span style=&quot;background-color: initial;&quot;&gt;&lt;br&gt;&lt;/span&gt;&lt;/div&gt;" style="text;html=1;strokeColor=#d79b00;fillColor=#ffe6cc;align=center;verticalAlign=middle;whiteSpace=wrap;rounded=0;" parent="1" vertex="1">
          <mxGeometry x="20" y="415" width="90" height="55" as="geometry" />
        </mxCell>
        <mxCell id="1MviEou3UJjA7Qx_oaFe-8" value="&lt;div style=&quot;&quot;&gt;&lt;span style=&quot;background-color: initial;&quot;&gt;- &lt;font color=&quot;#0000cc&quot;&gt;iban&lt;/font&gt;&lt;/span&gt;&lt;/div&gt;&lt;div style=&quot;&quot;&gt;&lt;span style=&quot;background-color: initial;&quot;&gt;- valuta&lt;/span&gt;&lt;/div&gt;&lt;div style=&quot;&quot;&gt;&lt;span style=&quot;background-color: initial;&quot;&gt;- scoperto&lt;/span&gt;&lt;/div&gt;" style="text;html=1;strokeColor=#d79b00;fillColor=#ffe6cc;align=left;verticalAlign=middle;whiteSpace=wrap;rounded=0;" parent="1" vertex="1">
          <mxGeometry x="670" y="415" width="60" height="45" as="geometry" />
        </mxCell>
        <mxCell id="ItG0HhnWTE0emp0KrZQw-1" value="&lt;div style=&quot;&quot;&gt;- data_ora_ intestazione&lt;/div&gt;" style="text;html=1;strokeColor=#d79b00;fillColor=#ffe6cc;align=left;verticalAlign=middle;whiteSpace=wrap;rounded=0;" parent="1" vertex="1">
          <mxGeometry x="320" y="415" width="150" height="15" as="geometry" />
        </mxCell>
        <mxCell id="ItG0HhnWTE0emp0KrZQw-2" value="" style="endArrow=none;html=1;rounded=0;exitX=1;exitY=0.5;exitDx=0;exitDy=0;" parent="1" source="1MviEou3UJjA7Qx_oaFe-3" edge="1">
          <mxGeometry width="50" height="50" relative="1" as="geometry">
            <mxPoint x="390" y="450" as="sourcePoint" />
            <mxPoint x="320" y="400" as="targetPoint" />
          </mxGeometry>
        </mxCell>
        <mxCell id="ItG0HhnWTE0emp0KrZQw-3" value="" style="endArrow=none;html=1;rounded=0;entryX=0;entryY=0.5;entryDx=0;entryDy=0;" parent="1" source="1MviEou3UJjA7Qx_oaFe-2" target="1MviEou3UJjA7Qx_oaFe-1" edge="1">
          <mxGeometry width="50" height="50" relative="1" as="geometry">
            <mxPoint x="480" y="399.5" as="sourcePoint" />
            <mxPoint x="590" y="399.5" as="targetPoint" />
          </mxGeometry>
        </mxCell>
        <mxCell id="ItG0HhnWTE0emp0KrZQw-4" value="proprietario di&lt;br&gt;(0, n)" style="text;html=1;strokeColor=none;fillColor=none;align=center;verticalAlign=middle;whiteSpace=wrap;rounded=0;" parent="1" vertex="1">
          <mxGeometry x="210" y="385" width="90" height="30" as="geometry" />
        </mxCell>
        <mxCell id="ItG0HhnWTE0emp0KrZQw-8" value="di proprietà di&lt;br&gt;(1, 1)" style="text;html=1;strokeColor=none;fillColor=none;align=center;verticalAlign=middle;whiteSpace=wrap;rounded=0;" parent="1" vertex="1">
          <mxGeometry x="500" y="385" width="80" height="30" as="geometry" />
        </mxCell>
        <mxCell id="ItG0HhnWTE0emp0KrZQw-9" value="" style="endArrow=classic;html=1;rounded=0;" parent="1" edge="1">
          <mxGeometry width="50" height="50" relative="1" as="geometry">
            <mxPoint x="294" y="393" as="sourcePoint" />
            <mxPoint x="314" y="393" as="targetPoint" />
          </mxGeometry>
        </mxCell>
        <mxCell id="ItG0HhnWTE0emp0KrZQw-10" value="" style="endArrow=classic;html=1;rounded=0;" parent="1" edge="1">
          <mxGeometry width="50" height="50" relative="1" as="geometry">
            <mxPoint x="491" y="393" as="sourcePoint" />
            <mxPoint x="471" y="393" as="targetPoint" />
          </mxGeometry>
        </mxCell>
        <mxCell id="4WuRBL-vlZSfh6s5XYHv-3" value="contabilizzazione" style="rhombus;whiteSpace=wrap;html=1;fillColor=#ffff88;strokeColor=#36393d;" vertex="1" parent="1">
          <mxGeometry x="857" y="374" width="150" height="50" as="geometry" />
        </mxCell>
        <mxCell id="4WuRBL-vlZSfh6s5XYHv-4" value="MOVIMENTO" style="rounded=0;whiteSpace=wrap;html=1;fillColor=#1ba1e2;strokeColor=#006EAF;fontColor=#ffffff;" vertex="1" parent="1">
          <mxGeometry x="1157" y="368" width="120" height="60" as="geometry" />
        </mxCell>
        <mxCell id="4WuRBL-vlZSfh6s5XYHv-5" value="" style="endArrow=none;html=1;rounded=0;" edge="1" parent="1" source="4WuRBL-vlZSfh6s5XYHv-3" target="4WuRBL-vlZSfh6s5XYHv-4">
          <mxGeometry width="50" height="50" relative="1" as="geometry">
            <mxPoint x="1017" y="399" as="sourcePoint" />
            <mxPoint x="1127" y="399" as="targetPoint" />
          </mxGeometry>
        </mxCell>
        <mxCell id="4WuRBL-vlZSfh6s5XYHv-6" value="contabilizzata per&lt;br&gt;(1, 1)" style="text;html=1;strokeColor=none;fillColor=none;align=center;verticalAlign=middle;whiteSpace=wrap;rounded=0;" vertex="1" parent="1">
          <mxGeometry x="1047" y="384" width="100" height="30" as="geometry" />
        </mxCell>
        <mxCell id="4WuRBL-vlZSfh6s5XYHv-7" value="" style="endArrow=classic;html=1;rounded=0;" edge="1" parent="1">
          <mxGeometry width="50" height="50" relative="1" as="geometry">
            <mxPoint x="1038" y="392" as="sourcePoint" />
            <mxPoint x="1018" y="392" as="targetPoint" />
          </mxGeometry>
        </mxCell>
        <mxCell id="4WuRBL-vlZSfh6s5XYHv-9" value="&lt;div style=&quot;&quot;&gt;- data_ora_operazione&lt;/div&gt;&lt;div style=&quot;&quot;&gt;- tipo_operazione&lt;/div&gt;" style="text;html=1;strokeColor=#d79b00;fillColor=#ffe6cc;align=left;verticalAlign=middle;whiteSpace=wrap;rounded=0;" vertex="1" parent="1">
          <mxGeometry x="877" y="419" width="150" height="35" as="geometry" />
        </mxCell>
        <mxCell id="4WuRBL-vlZSfh6s5XYHv-10" value="&lt;div style=&quot;&quot;&gt;&lt;span style=&quot;background-color: initial;&quot;&gt;- id_movimento&lt;/span&gt;&lt;/div&gt;&lt;div style=&quot;&quot;&gt;&lt;span style=&quot;background-color: initial;&quot;&gt;- importo&lt;/span&gt;&lt;br&gt;&lt;/div&gt;" style="text;html=1;strokeColor=#d79b00;fillColor=#ffe6cc;align=left;verticalAlign=middle;whiteSpace=wrap;rounded=0;" vertex="1" parent="1">
          <mxGeometry x="1257" y="414" width="90" height="40" as="geometry" />
        </mxCell>
        <mxCell id="4WuRBL-vlZSfh6s5XYHv-11" value="" style="endArrow=none;html=1;rounded=0;" edge="1" parent="1">
          <mxGeometry width="50" height="50" relative="1" as="geometry">
            <mxPoint x="699" y="399.79452054794524" as="sourcePoint" />
            <mxPoint x="856.7627118644068" y="399.25423728813576" as="targetPoint" />
          </mxGeometry>
        </mxCell>
        <mxCell id="4WuRBL-vlZSfh6s5XYHv-12" value="su cui contabilizzare &lt;br&gt;(0, n)" style="text;html=1;strokeColor=none;fillColor=none;align=center;verticalAlign=middle;whiteSpace=wrap;rounded=0;" vertex="1" parent="1">
          <mxGeometry x="691" y="384" width="170" height="30" as="geometry" />
        </mxCell>
        <mxCell id="4WuRBL-vlZSfh6s5XYHv-13" value="" style="endArrow=classic;html=1;rounded=0;" edge="1" parent="1">
          <mxGeometry width="50" height="50" relative="1" as="geometry">
            <mxPoint x="834" y="393" as="sourcePoint" />
            <mxPoint x="854" y="393" as="targetPoint" />
          </mxGeometry>
        </mxCell>
      </root>
    </mxGraphModel>
  </diagram>
</mxfile>
